<svg xmlns="http://www.w3.org/2000/svg" version="1.1" xmlns:xlink="http://www.w3.org/1999/xlink" width="190" height="251"><svg width="190" height="251" viewBox="0 0 190 251" fill="none" xmlns="http://www.w3.org/2000/svg">
<path d="M95.1491 131.678C70.7591 131.678 51.2691 112.228 51.3991 88.0182C51.5291 64.2582 71.3791 44.6382 95.2491 44.6582C119.449 44.6882 138.919 64.3082 138.869 88.6182C138.809 112.738 119.579 131.678 95.1491 131.678Z" fill="#F8BD06"></path>
<path d="M98.0191 139.398C100.899 139.908 103.769 139.258 106.359 138.358C111.239 136.668 111.119 139.018 110.739 142.608C109.729 152.208 109.239 161.848 109.409 171.498C109.499 176.988 109.569 182.558 111.119 187.828C112.119 191.208 110.809 192.148 108.119 193.168C91.7491 199.338 76.0091 206.808 60.9591 215.768C45.8691 224.748 31.8991 235.108 19.7091 247.798C18.8091 248.738 17.7591 249.548 16.7291 250.358C16.5391 250.508 16.1091 250.328 15.7891 250.308C19.0191 240.918 24.3191 232.458 28.0591 223.308C28.8491 222.128 29.0591 220.648 29.9291 219.508C30.2991 218.738 30.6791 217.978 31.0491 217.208C31.5491 213.528 33.8991 210.618 35.1991 207.268C36.5291 203.828 38.1391 200.518 39.8291 197.248C40.3391 196.238 40.8491 195.228 41.3491 194.218C42.4191 192.248 43.4291 190.248 44.0891 188.098C44.9591 185.938 45.9691 183.858 47.3591 181.978C49.5491 179.718 50.0591 176.618 51.3791 173.918C56.6891 162.088 62.4791 150.488 68.0491 138.788C68.8791 137.028 69.1891 134.448 72.0891 134.498C78.5291 137.018 84.9791 139.518 92.0691 139.408C94.0591 138.828 96.0391 138.808 98.0191 139.398Z" fill="#E4E7E9"></path>
<path d="M72.0891 134.478C65.1091 146.058 60.2892 158.708 54.1592 170.708C53.4892 172.008 52.8292 173.308 52.1592 174.618C49.9392 176.868 48.9292 179.708 48.2592 182.708C47.1392 184.698 46.0192 186.698 44.8992 188.688C43.5392 190.458 42.4892 192.418 41.4992 194.398C41.1192 195.208 40.8092 196.048 40.3692 196.828C38.9692 199.928 36.8592 202.648 35.7192 205.878C33.7392 209.618 32.1492 213.608 28.7292 216.378C27.3392 218.628 25.4892 220.628 24.9992 223.358C24.2492 224.708 24.3192 226.528 22.6892 227.368C20.2992 231.288 17.5192 234.988 16.0292 239.408C15.3292 240.738 15.1292 242.328 14.0292 243.468C12.9992 244.778 11.9692 246.088 10.9392 247.408C9.99915 247.618 9.52915 247.388 9.89915 246.338C9.97915 245.718 10.0492 245.108 10.1292 244.488C11.1692 242.918 9.97915 240.968 10.9892 239.398C11.3092 236.078 11.6392 232.768 11.9592 229.448C11.5292 228.178 11.0692 226.898 12.2492 225.748C13.1492 224.428 13.0992 222.958 12.9792 221.468C12.4992 219.578 12.0592 217.688 13.2492 215.878C15.0392 201.768 14.4492 187.688 12.6792 173.638C11.1592 161.588 9.17915 149.608 4.42915 138.308C3.27915 135.568 4.88915 134.878 6.81915 133.948C21.2492 126.968 34.8692 118.728 47.3292 107.428C52.5692 119.438 60.8591 128.358 72.0891 134.478Z" fill="#B3B3B4"></path>
<path d="M53.9591 0.0181968C55.2391 -0.161803 55.6291 1.0282 56.1191 2.0582C61.6691 13.5382 67.2291 25.0082 72.7591 36.4982C73.3991 37.8282 74.1891 39.3082 72.1791 40.2782C69.9391 41.3682 69.2691 39.7082 68.5291 38.1882C63.0591 26.8582 57.6091 15.5182 52.0791 4.2182C51.0091 2.0582 51.4291 0.778197 53.9591 0.0181968Z" fill="#F2B907"></path>
<path d="M2.83912 64.638C15.0791 67.588 27.3091 70.548 39.5591 73.478C41.2991 73.898 43.5791 73.758 43.0491 76.518C42.4491 79.618 40.2991 77.968 38.7291 77.618C26.9091 74.988 15.1191 72.218 3.27912 69.678C-0.260879 68.918 -0.880879 67.438 1.15912 64.588C1.73912 63.968 2.29912 63.928 2.83912 64.638Z" fill="#F2B907"></path>
<path d="M138.319 3.8383C138.039 4.4683 137.709 5.2283 137.349 5.9783C132.229 16.6083 127.129 27.2483 121.959 37.8583C121.299 39.2183 120.949 41.4583 118.529 40.3383C115.959 39.1483 117.269 37.3483 118.049 35.7383C123.259 24.9683 128.479 14.2083 133.729 3.4583C134.269 2.3483 134.519 0.678303 136.439 1.2783C137.609 1.6183 138.659 2.1483 138.319 3.8383Z" fill="#F2B807"></path>
<path d="M150.479 78.5082C148.579 78.6482 147.529 78.3382 147.329 76.8482C147.129 75.3482 148.069 74.8782 149.349 74.5782C161.639 71.7682 173.919 68.9382 186.189 66.0482C187.869 65.6482 189.189 65.5682 189.589 67.6182C190.029 69.8682 188.169 69.9882 186.809 70.2982C175.959 72.7682 165.099 75.1582 154.239 77.5882C152.789 77.9182 151.349 78.2982 150.479 78.5082Z" fill="#F2B807"></path>
<path d="M30.4191 33.768C30.7991 34.048 31.4791 34.488 32.1091 34.988C38.8891 40.328 45.6391 45.698 52.4391 51.018C53.8891 52.148 55.0391 53.218 53.4491 55.048C52.0491 56.658 50.8091 55.748 49.5891 54.778C42.6991 49.308 35.8091 43.848 28.9291 38.358C28.0291 37.638 26.9991 36.878 27.8091 35.478C28.3091 34.608 28.7891 33.698 30.4191 33.768Z" fill="#F2B907"></path>
<path d="M139.029 56.3081C137.819 56.3881 137.319 55.4581 136.709 54.6881C135.939 53.6981 136.229 52.7881 137.109 52.0881C143.869 46.7081 150.639 41.3281 157.429 35.9881C158.679 35.0081 159.909 35.2281 160.879 36.5281C161.679 37.5981 161.859 38.6281 160.679 39.5581C153.769 45.0181 146.859 50.4781 139.939 55.9181C139.699 56.1281 139.339 56.1881 139.029 56.3081Z" fill="#F1B807"></path>
<path d="M149.829 98.468C158.419 100.488 166.489 102.398 174.579 104.278C176.039 104.618 177.099 105.108 176.659 106.928C176.199 108.838 174.989 109.188 173.269 108.758C168.759 107.648 164.239 106.558 159.719 105.488C156.329 104.678 152.929 103.898 149.529 103.138C147.869 102.768 146.739 102.078 147.229 100.088C147.679 98.328 148.929 98.288 149.829 98.468Z" fill="#F0B807"></path>
<path d="M93.3691 3.64831C96.0091 3.15831 97.3391 3.90831 97.2891 6.93831C97.1491 15.0283 97.1391 23.1283 97.2891 31.2183C97.3491 34.5483 95.9491 35.2983 93.0691 34.4883C91.7791 33.1083 92.0691 31.3783 92.0591 29.7383C92.0291 22.7483 92.0191 15.7483 92.0691 8.75831C92.0791 6.97831 91.6991 5.03831 93.3691 3.64831Z" fill="#E0AC08"></path>
<path d="M150.469 130.208C150.229 132.098 149.989 133.998 149.749 135.888C145.589 132.618 141.419 129.378 137.289 126.088C136.139 125.178 134.779 124.258 136.299 122.498C137.659 120.918 138.849 121.558 140.149 122.538C143.569 125.108 147.019 127.648 150.469 130.208Z" fill="#EEB608"></path>
</svg><style>@media (prefers-color-scheme: light) { :root { filter: none; } }
@media (prefers-color-scheme: dark) { :root { filter: none; } }
</style></svg>